%TF.GenerationSoftware,KiCad,Pcbnew,9.0.1*%
%TF.CreationDate,2025-05-26T16:43:25+02:00*%
%TF.ProjectId,Janus HW,4a616e75-7320-4485-972e-6b696361645f,rev?*%
%TF.SameCoordinates,Original*%
%TF.FileFunction,Copper,L2,Inr*%
%TF.FilePolarity,Positive*%
%FSLAX46Y46*%
G04 Gerber Fmt 4.6, Leading zero omitted, Abs format (unit mm)*
G04 Created by KiCad (PCBNEW 9.0.1) date 2025-05-26 16:43:25*
%MOMM*%
%LPD*%
G01*
G04 APERTURE LIST*
%TA.AperFunction,HeatsinkPad*%
%ADD10O,1.550000X0.890000*%
%TD*%
%TA.AperFunction,HeatsinkPad*%
%ADD11O,0.950000X1.250000*%
%TD*%
%TA.AperFunction,ViaPad*%
%ADD12C,0.600000*%
%TD*%
G04 APERTURE END LIST*
D10*
%TO.N,GND*%
%TO.C,J1*%
X202500000Y-64000000D03*
D11*
X199800000Y-65000000D03*
X199800000Y-70000000D03*
D10*
X202500000Y-71000000D03*
%TD*%
D12*
%TO.N,+3.3V*%
X196250000Y-62750000D03*
%TO.N,GND*%
X195000000Y-62000000D03*
X194250000Y-60250000D03*
X191000000Y-62250000D03*
%TO.N,Net-(J1-D-)*%
X197500000Y-66750000D03*
%TO.N,Net-(J1-D+)*%
X196500000Y-66750000D03*
%TO.N,GND*%
X191508630Y-65743806D03*
%TO.N,+5V*%
X193000000Y-66750000D03*
%TO.N,GND*%
X199750000Y-73250000D03*
%TO.N,SPI_NSS*%
X193250000Y-75000000D03*
%TO.N,SPI_SCK*%
X190750000Y-72750000D03*
%TO.N,SPI_DIO0*%
X190000000Y-69250000D03*
%TO.N,+3.3V*%
X179250000Y-56750000D03*
%TO.N,GND*%
X194805000Y-71305000D03*
X194805000Y-71305000D03*
X181250000Y-75000000D03*
X175000000Y-75000000D03*
X186750000Y-72750000D03*
X186500000Y-58000000D03*
X172750000Y-56750000D03*
X171500000Y-56750000D03*
%TO.N,+3.3V*%
X177750000Y-75000000D03*
X176750000Y-75000000D03*
%TO.N,SPI_MISO*%
X191305000Y-73500000D03*
%TO.N,SPI_MOSI*%
X191305000Y-74300003D03*
%TO.N,+3.3V*%
X198555000Y-72000000D03*
X195055000Y-75000000D03*
X198250000Y-68100000D03*
%TD*%
%TA.AperFunction,Conductor*%
%TO.N,+3.3V*%
G36*
X170649390Y-56520185D02*
G01*
X170695145Y-56572989D01*
X170705089Y-56642147D01*
X170703969Y-56648690D01*
X170699500Y-56671158D01*
X170699500Y-56828846D01*
X170730261Y-56983489D01*
X170730264Y-56983501D01*
X170790602Y-57129172D01*
X170790609Y-57129185D01*
X170878210Y-57260288D01*
X170878213Y-57260292D01*
X170989707Y-57371786D01*
X170989711Y-57371789D01*
X171120814Y-57459390D01*
X171120827Y-57459397D01*
X171194013Y-57489711D01*
X171266503Y-57519737D01*
X171421153Y-57550499D01*
X171421156Y-57550500D01*
X171421158Y-57550500D01*
X171578844Y-57550500D01*
X171578845Y-57550499D01*
X171733497Y-57519737D01*
X171879179Y-57459394D01*
X172010289Y-57371789D01*
X172010292Y-57371786D01*
X172037319Y-57344760D01*
X172098642Y-57311275D01*
X172168334Y-57316259D01*
X172212681Y-57344760D01*
X172239707Y-57371786D01*
X172239711Y-57371789D01*
X172370814Y-57459390D01*
X172370827Y-57459397D01*
X172444013Y-57489711D01*
X172516503Y-57519737D01*
X172671153Y-57550499D01*
X172671156Y-57550500D01*
X172671158Y-57550500D01*
X172828844Y-57550500D01*
X172828845Y-57550499D01*
X172983497Y-57519737D01*
X173129179Y-57459394D01*
X173260289Y-57371789D01*
X173371789Y-57260289D01*
X173459394Y-57129179D01*
X173519737Y-56983497D01*
X173550500Y-56828842D01*
X173550500Y-56671158D01*
X173546031Y-56648690D01*
X173552260Y-56579099D01*
X173595123Y-56523922D01*
X173661013Y-56500678D01*
X173667649Y-56500500D01*
X203625500Y-56500500D01*
X203692539Y-56520185D01*
X203738294Y-56572989D01*
X203749500Y-56624500D01*
X203749500Y-63282998D01*
X203729815Y-63350037D01*
X203677011Y-63395792D01*
X203607853Y-63405736D01*
X203544297Y-63376711D01*
X203537819Y-63370679D01*
X203432724Y-63265584D01*
X203432716Y-63265578D01*
X203277864Y-63162109D01*
X203105792Y-63090835D01*
X203105784Y-63090833D01*
X202923127Y-63054500D01*
X202923124Y-63054500D01*
X202076876Y-63054500D01*
X202076873Y-63054500D01*
X201894215Y-63090833D01*
X201894207Y-63090835D01*
X201722136Y-63162109D01*
X201722135Y-63162109D01*
X201567283Y-63265578D01*
X201567275Y-63265584D01*
X201435584Y-63397275D01*
X201435578Y-63397283D01*
X201332109Y-63552135D01*
X201332109Y-63552136D01*
X201260835Y-63724207D01*
X201260833Y-63724215D01*
X201224500Y-63906871D01*
X201224500Y-64093128D01*
X201260833Y-64275784D01*
X201260835Y-64275792D01*
X201332109Y-64447863D01*
X201332109Y-64447864D01*
X201435578Y-64602716D01*
X201435584Y-64602724D01*
X201567275Y-64734415D01*
X201567283Y-64734421D01*
X201722135Y-64837890D01*
X201772534Y-64858766D01*
X201894208Y-64909165D01*
X202065846Y-64943306D01*
X202076871Y-64945499D01*
X202076874Y-64945500D01*
X202076876Y-64945500D01*
X202923126Y-64945500D01*
X202923127Y-64945499D01*
X203105792Y-64909165D01*
X203277862Y-64837891D01*
X203277863Y-64837890D01*
X203277864Y-64837890D01*
X203403531Y-64753922D01*
X203432721Y-64734418D01*
X203458983Y-64708156D01*
X203537819Y-64629321D01*
X203599142Y-64595836D01*
X203668834Y-64600820D01*
X203724767Y-64642692D01*
X203749184Y-64708156D01*
X203749500Y-64717002D01*
X203749500Y-70282998D01*
X203729815Y-70350037D01*
X203677011Y-70395792D01*
X203607853Y-70405736D01*
X203544297Y-70376711D01*
X203537819Y-70370679D01*
X203432724Y-70265584D01*
X203432716Y-70265578D01*
X203277864Y-70162109D01*
X203105792Y-70090835D01*
X203105784Y-70090833D01*
X202923127Y-70054500D01*
X202923124Y-70054500D01*
X202076876Y-70054500D01*
X202076873Y-70054500D01*
X201894215Y-70090833D01*
X201894207Y-70090835D01*
X201722136Y-70162109D01*
X201722135Y-70162109D01*
X201567283Y-70265578D01*
X201567275Y-70265584D01*
X201435584Y-70397275D01*
X201435578Y-70397283D01*
X201332109Y-70552135D01*
X201332109Y-70552136D01*
X201260835Y-70724207D01*
X201260833Y-70724215D01*
X201224500Y-70906871D01*
X201224500Y-71093128D01*
X201260833Y-71275784D01*
X201260835Y-71275792D01*
X201332109Y-71447863D01*
X201332109Y-71447864D01*
X201435578Y-71602716D01*
X201435584Y-71602724D01*
X201567275Y-71734415D01*
X201567283Y-71734421D01*
X201722135Y-71837890D01*
X201772534Y-71858766D01*
X201894208Y-71909165D01*
X202076871Y-71945499D01*
X202076874Y-71945500D01*
X202076876Y-71945500D01*
X202923126Y-71945500D01*
X202923127Y-71945499D01*
X203105792Y-71909165D01*
X203277862Y-71837891D01*
X203277863Y-71837890D01*
X203277864Y-71837890D01*
X203354772Y-71786501D01*
X203432721Y-71734418D01*
X203482967Y-71684172D01*
X203537819Y-71629321D01*
X203599142Y-71595836D01*
X203668834Y-71600820D01*
X203724767Y-71642692D01*
X203749184Y-71708156D01*
X203749500Y-71717002D01*
X203749500Y-75375500D01*
X203729815Y-75442539D01*
X203677011Y-75488294D01*
X203625500Y-75499500D01*
X194095134Y-75499500D01*
X194028095Y-75479815D01*
X193982340Y-75427011D01*
X193972396Y-75357853D01*
X193980573Y-75328047D01*
X194019737Y-75233497D01*
X194050500Y-75078842D01*
X194050500Y-74921158D01*
X194050500Y-74921155D01*
X194050499Y-74921153D01*
X194019738Y-74766510D01*
X194019737Y-74766503D01*
X194019735Y-74766498D01*
X193959397Y-74620827D01*
X193959390Y-74620814D01*
X193871789Y-74489711D01*
X193871786Y-74489707D01*
X193760292Y-74378213D01*
X193760288Y-74378210D01*
X193629185Y-74290609D01*
X193629172Y-74290602D01*
X193483501Y-74230264D01*
X193483489Y-74230261D01*
X193328845Y-74199500D01*
X193328842Y-74199500D01*
X193171158Y-74199500D01*
X193171155Y-74199500D01*
X193016510Y-74230261D01*
X193016498Y-74230264D01*
X192870827Y-74290602D01*
X192870814Y-74290609D01*
X192739711Y-74378210D01*
X192739707Y-74378213D01*
X192628213Y-74489707D01*
X192628210Y-74489711D01*
X192540609Y-74620814D01*
X192540602Y-74620827D01*
X192480264Y-74766498D01*
X192480261Y-74766510D01*
X192449500Y-74921153D01*
X192449500Y-75078846D01*
X192480261Y-75233489D01*
X192480263Y-75233497D01*
X192519427Y-75328047D01*
X192526896Y-75397517D01*
X192495621Y-75459996D01*
X192435532Y-75495648D01*
X192404866Y-75499500D01*
X182095134Y-75499500D01*
X182028095Y-75479815D01*
X181982340Y-75427011D01*
X181972396Y-75357853D01*
X181980573Y-75328047D01*
X182019737Y-75233497D01*
X182050500Y-75078842D01*
X182050500Y-74921158D01*
X182050500Y-74921155D01*
X182050499Y-74921153D01*
X182019738Y-74766510D01*
X182019737Y-74766503D01*
X182019735Y-74766498D01*
X181959397Y-74620827D01*
X181959390Y-74620814D01*
X181871789Y-74489711D01*
X181871786Y-74489707D01*
X181760292Y-74378213D01*
X181760288Y-74378210D01*
X181629185Y-74290609D01*
X181629172Y-74290602D01*
X181483501Y-74230264D01*
X181483489Y-74230261D01*
X181328845Y-74199500D01*
X181328842Y-74199500D01*
X181171158Y-74199500D01*
X181171155Y-74199500D01*
X181016510Y-74230261D01*
X181016498Y-74230264D01*
X180870827Y-74290602D01*
X180870814Y-74290609D01*
X180739711Y-74378210D01*
X180739707Y-74378213D01*
X180628213Y-74489707D01*
X180628210Y-74489711D01*
X180540609Y-74620814D01*
X180540602Y-74620827D01*
X180480264Y-74766498D01*
X180480261Y-74766510D01*
X180449500Y-74921153D01*
X180449500Y-75078846D01*
X180480261Y-75233489D01*
X180480263Y-75233497D01*
X180519427Y-75328047D01*
X180526896Y-75397517D01*
X180495621Y-75459996D01*
X180435532Y-75495648D01*
X180404866Y-75499500D01*
X175845134Y-75499500D01*
X175778095Y-75479815D01*
X175732340Y-75427011D01*
X175722396Y-75357853D01*
X175730573Y-75328047D01*
X175769737Y-75233497D01*
X175800500Y-75078842D01*
X175800500Y-74921158D01*
X175800500Y-74921155D01*
X175800499Y-74921153D01*
X175769738Y-74766510D01*
X175769737Y-74766503D01*
X175769735Y-74766498D01*
X175709397Y-74620827D01*
X175709390Y-74620814D01*
X175621789Y-74489711D01*
X175621786Y-74489707D01*
X175510292Y-74378213D01*
X175510288Y-74378210D01*
X175379185Y-74290609D01*
X175379172Y-74290602D01*
X175233501Y-74230264D01*
X175233489Y-74230261D01*
X175078845Y-74199500D01*
X175078842Y-74199500D01*
X174921158Y-74199500D01*
X174921155Y-74199500D01*
X174766510Y-74230261D01*
X174766498Y-74230264D01*
X174620827Y-74290602D01*
X174620814Y-74290609D01*
X174489711Y-74378210D01*
X174489707Y-74378213D01*
X174378213Y-74489707D01*
X174378210Y-74489711D01*
X174290609Y-74620814D01*
X174290602Y-74620827D01*
X174230264Y-74766498D01*
X174230261Y-74766510D01*
X174199500Y-74921153D01*
X174199500Y-75078846D01*
X174230261Y-75233489D01*
X174230263Y-75233497D01*
X174269427Y-75328047D01*
X174276896Y-75397517D01*
X174245621Y-75459996D01*
X174185532Y-75495648D01*
X174154866Y-75499500D01*
X166874500Y-75499500D01*
X166807461Y-75479815D01*
X166761706Y-75427011D01*
X166750500Y-75375500D01*
X166750500Y-72671153D01*
X185949500Y-72671153D01*
X185949500Y-72828846D01*
X185980261Y-72983489D01*
X185980264Y-72983501D01*
X186040602Y-73129172D01*
X186040609Y-73129185D01*
X186128210Y-73260288D01*
X186128213Y-73260292D01*
X186239707Y-73371786D01*
X186239711Y-73371789D01*
X186370814Y-73459390D01*
X186370827Y-73459397D01*
X186429373Y-73483647D01*
X186516503Y-73519737D01*
X186671153Y-73550499D01*
X186671156Y-73550500D01*
X186671158Y-73550500D01*
X186828844Y-73550500D01*
X186828845Y-73550499D01*
X186983497Y-73519737D01*
X187129179Y-73459394D01*
X187260289Y-73371789D01*
X187371789Y-73260289D01*
X187459394Y-73129179D01*
X187462854Y-73120827D01*
X187473067Y-73096166D01*
X187519737Y-72983497D01*
X187550500Y-72828842D01*
X187550500Y-72671158D01*
X187550500Y-72671155D01*
X187550499Y-72671153D01*
X189949500Y-72671153D01*
X189949500Y-72828846D01*
X189980261Y-72983489D01*
X189980264Y-72983501D01*
X190040602Y-73129172D01*
X190040609Y-73129185D01*
X190128210Y-73260288D01*
X190128213Y-73260292D01*
X190239707Y-73371786D01*
X190239711Y-73371789D01*
X190370817Y-73459392D01*
X190370819Y-73459392D01*
X190370821Y-73459394D01*
X190429374Y-73483647D01*
X190483778Y-73527487D01*
X190503539Y-73574016D01*
X190535261Y-73733491D01*
X190535264Y-73733501D01*
X190584575Y-73852549D01*
X190592044Y-73922018D01*
X190584575Y-73947453D01*
X190535264Y-74066501D01*
X190535261Y-74066513D01*
X190504500Y-74221156D01*
X190504500Y-74378849D01*
X190535261Y-74533492D01*
X190535264Y-74533504D01*
X190595602Y-74679175D01*
X190595609Y-74679188D01*
X190683210Y-74810291D01*
X190683213Y-74810295D01*
X190794707Y-74921789D01*
X190794711Y-74921792D01*
X190925814Y-75009393D01*
X190925827Y-75009400D01*
X191071498Y-75069738D01*
X191071503Y-75069740D01*
X191226153Y-75100502D01*
X191226156Y-75100503D01*
X191226158Y-75100503D01*
X191383844Y-75100503D01*
X191383845Y-75100502D01*
X191538497Y-75069740D01*
X191684179Y-75009397D01*
X191815289Y-74921792D01*
X191926789Y-74810292D01*
X192014394Y-74679182D01*
X192074737Y-74533500D01*
X192105500Y-74378845D01*
X192105500Y-74221161D01*
X192105500Y-74221158D01*
X192105499Y-74221156D01*
X192074738Y-74066513D01*
X192074737Y-74066506D01*
X192025423Y-73947452D01*
X192017955Y-73877984D01*
X192025424Y-73852549D01*
X192074737Y-73733497D01*
X192105500Y-73578842D01*
X192105500Y-73421158D01*
X192105500Y-73421155D01*
X192105499Y-73421153D01*
X192074738Y-73266510D01*
X192074737Y-73266503D01*
X192035242Y-73171153D01*
X198949500Y-73171153D01*
X198949500Y-73328846D01*
X198980261Y-73483489D01*
X198980264Y-73483501D01*
X199040602Y-73629172D01*
X199040609Y-73629185D01*
X199128210Y-73760288D01*
X199128213Y-73760292D01*
X199239707Y-73871786D01*
X199239711Y-73871789D01*
X199370814Y-73959390D01*
X199370827Y-73959397D01*
X199516498Y-74019735D01*
X199516503Y-74019737D01*
X199671153Y-74050499D01*
X199671156Y-74050500D01*
X199671158Y-74050500D01*
X199828844Y-74050500D01*
X199828845Y-74050499D01*
X199983497Y-74019737D01*
X200129179Y-73959394D01*
X200260289Y-73871789D01*
X200371789Y-73760289D01*
X200459394Y-73629179D01*
X200519737Y-73483497D01*
X200550500Y-73328842D01*
X200550500Y-73171158D01*
X200550500Y-73171155D01*
X200550499Y-73171153D01*
X200519738Y-73016510D01*
X200519737Y-73016503D01*
X200519735Y-73016498D01*
X200459397Y-72870827D01*
X200459390Y-72870814D01*
X200371789Y-72739711D01*
X200371786Y-72739707D01*
X200260292Y-72628213D01*
X200260288Y-72628210D01*
X200129185Y-72540609D01*
X200129172Y-72540602D01*
X199983501Y-72480264D01*
X199983489Y-72480261D01*
X199828845Y-72449500D01*
X199828842Y-72449500D01*
X199671158Y-72449500D01*
X199671155Y-72449500D01*
X199516510Y-72480261D01*
X199516498Y-72480264D01*
X199370827Y-72540602D01*
X199370814Y-72540609D01*
X199239711Y-72628210D01*
X199239707Y-72628213D01*
X199128213Y-72739707D01*
X199128210Y-72739711D01*
X199040609Y-72870814D01*
X199040602Y-72870827D01*
X198980264Y-73016498D01*
X198980261Y-73016510D01*
X198949500Y-73171153D01*
X192035242Y-73171153D01*
X192034933Y-73170408D01*
X192014397Y-73120827D01*
X192014390Y-73120814D01*
X191926789Y-72989711D01*
X191926786Y-72989707D01*
X191815292Y-72878213D01*
X191815288Y-72878210D01*
X191684185Y-72790609D01*
X191684179Y-72790606D01*
X191625623Y-72766351D01*
X191571220Y-72722509D01*
X191551460Y-72675981D01*
X191524531Y-72540606D01*
X191519737Y-72516503D01*
X191519735Y-72516498D01*
X191459397Y-72370827D01*
X191459390Y-72370814D01*
X191371789Y-72239711D01*
X191371786Y-72239707D01*
X191260292Y-72128213D01*
X191260288Y-72128210D01*
X191129185Y-72040609D01*
X191129172Y-72040602D01*
X190983501Y-71980264D01*
X190983489Y-71980261D01*
X190828845Y-71949500D01*
X190828842Y-71949500D01*
X190671158Y-71949500D01*
X190671155Y-71949500D01*
X190516510Y-71980261D01*
X190516498Y-71980264D01*
X190370827Y-72040602D01*
X190370814Y-72040609D01*
X190239711Y-72128210D01*
X190239707Y-72128213D01*
X190128213Y-72239707D01*
X190128210Y-72239711D01*
X190040609Y-72370814D01*
X190040602Y-72370827D01*
X189980264Y-72516498D01*
X189980261Y-72516510D01*
X189949500Y-72671153D01*
X187550499Y-72671153D01*
X187524531Y-72540606D01*
X187519737Y-72516503D01*
X187519735Y-72516498D01*
X187459397Y-72370827D01*
X187459390Y-72370814D01*
X187371789Y-72239711D01*
X187371786Y-72239707D01*
X187260292Y-72128213D01*
X187260288Y-72128210D01*
X187129185Y-72040609D01*
X187129172Y-72040602D01*
X186983501Y-71980264D01*
X186983489Y-71980261D01*
X186828845Y-71949500D01*
X186828842Y-71949500D01*
X186671158Y-71949500D01*
X186671155Y-71949500D01*
X186516510Y-71980261D01*
X186516498Y-71980264D01*
X186370827Y-72040602D01*
X186370814Y-72040609D01*
X186239711Y-72128210D01*
X186239707Y-72128213D01*
X186128213Y-72239707D01*
X186128210Y-72239711D01*
X186040609Y-72370814D01*
X186040602Y-72370827D01*
X185980264Y-72516498D01*
X185980261Y-72516510D01*
X185949500Y-72671153D01*
X166750500Y-72671153D01*
X166750500Y-71226153D01*
X194004500Y-71226153D01*
X194004500Y-71383846D01*
X194035261Y-71538489D01*
X194035264Y-71538501D01*
X194095602Y-71684172D01*
X194095609Y-71684185D01*
X194183210Y-71815288D01*
X194183213Y-71815292D01*
X194294707Y-71926786D01*
X194294711Y-71926789D01*
X194425814Y-72014390D01*
X194425827Y-72014397D01*
X194571498Y-72074735D01*
X194571503Y-72074737D01*
X194726153Y-72105499D01*
X194726156Y-72105500D01*
X194726158Y-72105500D01*
X194883844Y-72105500D01*
X194883845Y-72105499D01*
X195038497Y-72074737D01*
X195184179Y-72014394D01*
X195315289Y-71926789D01*
X195426789Y-71815289D01*
X195514394Y-71684179D01*
X195574737Y-71538497D01*
X195605500Y-71383842D01*
X195605500Y-71226158D01*
X195605500Y-71226155D01*
X195605499Y-71226153D01*
X195605038Y-71223834D01*
X195574737Y-71071503D01*
X195551116Y-71014477D01*
X195514397Y-70925827D01*
X195514390Y-70925814D01*
X195426789Y-70794711D01*
X195426786Y-70794707D01*
X195315292Y-70683213D01*
X195315288Y-70683210D01*
X195184185Y-70595609D01*
X195184172Y-70595602D01*
X195038501Y-70535264D01*
X195038489Y-70535261D01*
X194883845Y-70504500D01*
X194883842Y-70504500D01*
X194726158Y-70504500D01*
X194726155Y-70504500D01*
X194571510Y-70535261D01*
X194571498Y-70535264D01*
X194425827Y-70595602D01*
X194425814Y-70595609D01*
X194294711Y-70683210D01*
X194294707Y-70683213D01*
X194183213Y-70794707D01*
X194183210Y-70794711D01*
X194095609Y-70925814D01*
X194095602Y-70925827D01*
X194035264Y-71071498D01*
X194035261Y-71071510D01*
X194004500Y-71226153D01*
X166750500Y-71226153D01*
X166750500Y-69171153D01*
X189199500Y-69171153D01*
X189199500Y-69328846D01*
X189230261Y-69483489D01*
X189230264Y-69483501D01*
X189290602Y-69629172D01*
X189290609Y-69629185D01*
X189378210Y-69760288D01*
X189378213Y-69760292D01*
X189489707Y-69871786D01*
X189489711Y-69871789D01*
X189620814Y-69959390D01*
X189620827Y-69959397D01*
X189766498Y-70019735D01*
X189766503Y-70019737D01*
X189921153Y-70050499D01*
X189921156Y-70050500D01*
X189921158Y-70050500D01*
X190078844Y-70050500D01*
X190078845Y-70050499D01*
X190233497Y-70019737D01*
X190379179Y-69959394D01*
X190510289Y-69871789D01*
X190621789Y-69760289D01*
X190626047Y-69753917D01*
X198824500Y-69753917D01*
X198824500Y-70246082D01*
X198861986Y-70434535D01*
X198861989Y-70434547D01*
X198935520Y-70612068D01*
X198935521Y-70612070D01*
X199042279Y-70771844D01*
X199042282Y-70771848D01*
X199178151Y-70907717D01*
X199178155Y-70907720D01*
X199337927Y-71014477D01*
X199337928Y-71014477D01*
X199337929Y-71014478D01*
X199337931Y-71014479D01*
X199475617Y-71071510D01*
X199515457Y-71088012D01*
X199703917Y-71125499D01*
X199703920Y-71125500D01*
X199703922Y-71125500D01*
X199896080Y-71125500D01*
X199896081Y-71125499D01*
X200084543Y-71088012D01*
X200262073Y-71014477D01*
X200421845Y-70907720D01*
X200557720Y-70771845D01*
X200664477Y-70612073D01*
X200738012Y-70434543D01*
X200775500Y-70246078D01*
X200775500Y-69753922D01*
X200775500Y-69753919D01*
X200775499Y-69753917D01*
X200750687Y-69629179D01*
X200738012Y-69565457D01*
X200664477Y-69387927D01*
X200557720Y-69228155D01*
X200557717Y-69228151D01*
X200421848Y-69092282D01*
X200421844Y-69092279D01*
X200262070Y-68985521D01*
X200262068Y-68985520D01*
X200084547Y-68911989D01*
X200084535Y-68911986D01*
X199896081Y-68874500D01*
X199896078Y-68874500D01*
X199703922Y-68874500D01*
X199703919Y-68874500D01*
X199515464Y-68911986D01*
X199515452Y-68911989D01*
X199337931Y-68985520D01*
X199337929Y-68985521D01*
X199178155Y-69092279D01*
X199178151Y-69092282D01*
X199042282Y-69228151D01*
X199042279Y-69228155D01*
X198935521Y-69387929D01*
X198935520Y-69387931D01*
X198861989Y-69565452D01*
X198861986Y-69565464D01*
X198824500Y-69753917D01*
X190626047Y-69753917D01*
X190650282Y-69717645D01*
X190676146Y-69678939D01*
X190709390Y-69629185D01*
X190709390Y-69629184D01*
X190709394Y-69629179D01*
X190769737Y-69483497D01*
X190800500Y-69328842D01*
X190800500Y-69171158D01*
X190800500Y-69171155D01*
X190800499Y-69171153D01*
X190769738Y-69016510D01*
X190769737Y-69016503D01*
X190756904Y-68985520D01*
X190709397Y-68870827D01*
X190709390Y-68870814D01*
X190621789Y-68739711D01*
X190621786Y-68739707D01*
X190510292Y-68628213D01*
X190510288Y-68628210D01*
X190379185Y-68540609D01*
X190379172Y-68540602D01*
X190233501Y-68480264D01*
X190233489Y-68480261D01*
X190078845Y-68449500D01*
X190078842Y-68449500D01*
X189921158Y-68449500D01*
X189921155Y-68449500D01*
X189766510Y-68480261D01*
X189766498Y-68480264D01*
X189620827Y-68540602D01*
X189620814Y-68540609D01*
X189489711Y-68628210D01*
X189489707Y-68628213D01*
X189378213Y-68739707D01*
X189378210Y-68739711D01*
X189290609Y-68870814D01*
X189290602Y-68870827D01*
X189230264Y-69016498D01*
X189230261Y-69016510D01*
X189199500Y-69171153D01*
X166750500Y-69171153D01*
X166750500Y-65664959D01*
X190708130Y-65664959D01*
X190708130Y-65822652D01*
X190738891Y-65977295D01*
X190738894Y-65977307D01*
X190799232Y-66122978D01*
X190799239Y-66122991D01*
X190886840Y-66254094D01*
X190886843Y-66254098D01*
X190998337Y-66365592D01*
X190998341Y-66365595D01*
X191129444Y-66453196D01*
X191129457Y-66453203D01*
X191275128Y-66513541D01*
X191275133Y-66513543D01*
X191429783Y-66544305D01*
X191429786Y-66544306D01*
X191429788Y-66544306D01*
X191587474Y-66544306D01*
X191587475Y-66544305D01*
X191742127Y-66513543D01*
X191887809Y-66453200D01*
X192018919Y-66365595D01*
X192045610Y-66338903D01*
X192106931Y-66305419D01*
X192176623Y-66310403D01*
X192232557Y-66352273D01*
X192256975Y-66417737D01*
X192247853Y-66474036D01*
X192230263Y-66516503D01*
X192230261Y-66516510D01*
X192199500Y-66671153D01*
X192199500Y-66828846D01*
X192230261Y-66983489D01*
X192230264Y-66983501D01*
X192290602Y-67129172D01*
X192290609Y-67129185D01*
X192378210Y-67260288D01*
X192378213Y-67260292D01*
X192489707Y-67371786D01*
X192489711Y-67371789D01*
X192620814Y-67459390D01*
X192620827Y-67459397D01*
X192766498Y-67519735D01*
X192766503Y-67519737D01*
X192921153Y-67550499D01*
X192921156Y-67550500D01*
X192921158Y-67550500D01*
X193078844Y-67550500D01*
X193078845Y-67550499D01*
X193233497Y-67519737D01*
X193379179Y-67459394D01*
X193510289Y-67371789D01*
X193621789Y-67260289D01*
X193709394Y-67129179D01*
X193769737Y-66983497D01*
X193800500Y-66828842D01*
X193800500Y-66671158D01*
X193800500Y-66671155D01*
X193800499Y-66671153D01*
X195699500Y-66671153D01*
X195699500Y-66828846D01*
X195730261Y-66983489D01*
X195730264Y-66983501D01*
X195790602Y-67129172D01*
X195790609Y-67129185D01*
X195878210Y-67260288D01*
X195878213Y-67260292D01*
X195989707Y-67371786D01*
X195989711Y-67371789D01*
X196120814Y-67459390D01*
X196120827Y-67459397D01*
X196266498Y-67519735D01*
X196266503Y-67519737D01*
X196421153Y-67550499D01*
X196421156Y-67550500D01*
X196421158Y-67550500D01*
X196578844Y-67550500D01*
X196578845Y-67550499D01*
X196733497Y-67519737D01*
X196879179Y-67459394D01*
X196931110Y-67424694D01*
X196997785Y-67403816D01*
X197065165Y-67422300D01*
X197068863Y-67424676D01*
X197120821Y-67459394D01*
X197120823Y-67459395D01*
X197120825Y-67459396D01*
X197266498Y-67519735D01*
X197266503Y-67519737D01*
X197421153Y-67550499D01*
X197421156Y-67550500D01*
X197421158Y-67550500D01*
X197578844Y-67550500D01*
X197578845Y-67550499D01*
X197733497Y-67519737D01*
X197879179Y-67459394D01*
X198010289Y-67371789D01*
X198121789Y-67260289D01*
X198209394Y-67129179D01*
X198269737Y-66983497D01*
X198300500Y-66828842D01*
X198300500Y-66671158D01*
X198300500Y-66671155D01*
X198300499Y-66671153D01*
X198269738Y-66516510D01*
X198269737Y-66516503D01*
X198252147Y-66474036D01*
X198209397Y-66370827D01*
X198209390Y-66370814D01*
X198121789Y-66239711D01*
X198121786Y-66239707D01*
X198010292Y-66128213D01*
X198010288Y-66128210D01*
X197879185Y-66040609D01*
X197879172Y-66040602D01*
X197733501Y-65980264D01*
X197733489Y-65980261D01*
X197578845Y-65949500D01*
X197578842Y-65949500D01*
X197421158Y-65949500D01*
X197421155Y-65949500D01*
X197266510Y-65980261D01*
X197266498Y-65980264D01*
X197120827Y-66040602D01*
X197120814Y-66040609D01*
X197068891Y-66075304D01*
X197002214Y-66096182D01*
X196934833Y-66077698D01*
X196931109Y-66075304D01*
X196879185Y-66040609D01*
X196879172Y-66040602D01*
X196733501Y-65980264D01*
X196733489Y-65980261D01*
X196578845Y-65949500D01*
X196578842Y-65949500D01*
X196421158Y-65949500D01*
X196421155Y-65949500D01*
X196266510Y-65980261D01*
X196266498Y-65980264D01*
X196120827Y-66040602D01*
X196120814Y-66040609D01*
X195989711Y-66128210D01*
X195989707Y-66128213D01*
X195878213Y-66239707D01*
X195878210Y-66239711D01*
X195790609Y-66370814D01*
X195790602Y-66370827D01*
X195730264Y-66516498D01*
X195730261Y-66516510D01*
X195699500Y-66671153D01*
X193800499Y-66671153D01*
X193769738Y-66516510D01*
X193769737Y-66516503D01*
X193752147Y-66474036D01*
X193709397Y-66370827D01*
X193709390Y-66370814D01*
X193621789Y-66239711D01*
X193621786Y-66239707D01*
X193510292Y-66128213D01*
X193510288Y-66128210D01*
X193379185Y-66040609D01*
X193379172Y-66040602D01*
X193233501Y-65980264D01*
X193233489Y-65980261D01*
X193078845Y-65949500D01*
X193078842Y-65949500D01*
X192921158Y-65949500D01*
X192921155Y-65949500D01*
X192766510Y-65980261D01*
X192766498Y-65980264D01*
X192620827Y-66040602D01*
X192620814Y-66040609D01*
X192489711Y-66128210D01*
X192463018Y-66154903D01*
X192401694Y-66188387D01*
X192332003Y-66183401D01*
X192276070Y-66141529D01*
X192251654Y-66076064D01*
X192260776Y-66019771D01*
X192278367Y-65977303D01*
X192309130Y-65822648D01*
X192309130Y-65664964D01*
X192309130Y-65664961D01*
X192309129Y-65664959D01*
X192278368Y-65510316D01*
X192278367Y-65510309D01*
X192246981Y-65434535D01*
X192218027Y-65364633D01*
X192218020Y-65364620D01*
X192130419Y-65233517D01*
X192130416Y-65233513D01*
X192018922Y-65122019D01*
X192018918Y-65122016D01*
X191887815Y-65034415D01*
X191887802Y-65034408D01*
X191742131Y-64974070D01*
X191742119Y-64974067D01*
X191587475Y-64943306D01*
X191587472Y-64943306D01*
X191429788Y-64943306D01*
X191429785Y-64943306D01*
X191275140Y-64974067D01*
X191275128Y-64974070D01*
X191129457Y-65034408D01*
X191129444Y-65034415D01*
X190998341Y-65122016D01*
X190998337Y-65122019D01*
X190886843Y-65233513D01*
X190886840Y-65233517D01*
X190799239Y-65364620D01*
X190799232Y-65364633D01*
X190738894Y-65510304D01*
X190738891Y-65510316D01*
X190708130Y-65664959D01*
X166750500Y-65664959D01*
X166750500Y-64753917D01*
X198824500Y-64753917D01*
X198824500Y-65246082D01*
X198861986Y-65434535D01*
X198861989Y-65434547D01*
X198935520Y-65612068D01*
X198935521Y-65612070D01*
X199042279Y-65771844D01*
X199042282Y-65771848D01*
X199178151Y-65907717D01*
X199178155Y-65907720D01*
X199337927Y-66014477D01*
X199337928Y-66014477D01*
X199337929Y-66014478D01*
X199337931Y-66014479D01*
X199515452Y-66088010D01*
X199515457Y-66088012D01*
X199703917Y-66125499D01*
X199703920Y-66125500D01*
X199703922Y-66125500D01*
X199896080Y-66125500D01*
X199896081Y-66125499D01*
X200084543Y-66088012D01*
X200262073Y-66014477D01*
X200421845Y-65907720D01*
X200557720Y-65771845D01*
X200664477Y-65612073D01*
X200738012Y-65434543D01*
X200775500Y-65246078D01*
X200775500Y-64753922D01*
X200775500Y-64753919D01*
X200775499Y-64753917D01*
X200768156Y-64717002D01*
X200738012Y-64565457D01*
X200664477Y-64387927D01*
X200557720Y-64228155D01*
X200557717Y-64228151D01*
X200421848Y-64092282D01*
X200421844Y-64092279D01*
X200262070Y-63985521D01*
X200262068Y-63985520D01*
X200084547Y-63911989D01*
X200084535Y-63911986D01*
X199896081Y-63874500D01*
X199896078Y-63874500D01*
X199703922Y-63874500D01*
X199703919Y-63874500D01*
X199515464Y-63911986D01*
X199515452Y-63911989D01*
X199337931Y-63985520D01*
X199337929Y-63985521D01*
X199178155Y-64092279D01*
X199178151Y-64092282D01*
X199042282Y-64228151D01*
X199042279Y-64228155D01*
X198935521Y-64387929D01*
X198935520Y-64387931D01*
X198861989Y-64565452D01*
X198861986Y-64565464D01*
X198824500Y-64753917D01*
X166750500Y-64753917D01*
X166750500Y-62171153D01*
X190199500Y-62171153D01*
X190199500Y-62328846D01*
X190230261Y-62483489D01*
X190230264Y-62483501D01*
X190290602Y-62629172D01*
X190290609Y-62629185D01*
X190378210Y-62760288D01*
X190378213Y-62760292D01*
X190489707Y-62871786D01*
X190489711Y-62871789D01*
X190620814Y-62959390D01*
X190620827Y-62959397D01*
X190766498Y-63019735D01*
X190766503Y-63019737D01*
X190921153Y-63050499D01*
X190921156Y-63050500D01*
X190921158Y-63050500D01*
X191078844Y-63050500D01*
X191078845Y-63050499D01*
X191233497Y-63019737D01*
X191379179Y-62959394D01*
X191510289Y-62871789D01*
X191621789Y-62760289D01*
X191709394Y-62629179D01*
X191769737Y-62483497D01*
X191800500Y-62328842D01*
X191800500Y-62171158D01*
X191800500Y-62171155D01*
X191800499Y-62171153D01*
X191769738Y-62016510D01*
X191769737Y-62016503D01*
X191730242Y-61921153D01*
X194199500Y-61921153D01*
X194199500Y-62078846D01*
X194230261Y-62233489D01*
X194230264Y-62233501D01*
X194290602Y-62379172D01*
X194290609Y-62379185D01*
X194378210Y-62510288D01*
X194378213Y-62510292D01*
X194489707Y-62621786D01*
X194489711Y-62621789D01*
X194620814Y-62709390D01*
X194620827Y-62709397D01*
X194766498Y-62769735D01*
X194766503Y-62769737D01*
X194921153Y-62800499D01*
X194921156Y-62800500D01*
X194921158Y-62800500D01*
X195078844Y-62800500D01*
X195078845Y-62800499D01*
X195233497Y-62769737D01*
X195379179Y-62709394D01*
X195510289Y-62621789D01*
X195621789Y-62510289D01*
X195709394Y-62379179D01*
X195769737Y-62233497D01*
X195800500Y-62078842D01*
X195800500Y-61921158D01*
X195800500Y-61921155D01*
X195800499Y-61921153D01*
X195769738Y-61766510D01*
X195769737Y-61766503D01*
X195769735Y-61766498D01*
X195709397Y-61620827D01*
X195709390Y-61620814D01*
X195621789Y-61489711D01*
X195621786Y-61489707D01*
X195510292Y-61378213D01*
X195510288Y-61378210D01*
X195379185Y-61290609D01*
X195379172Y-61290602D01*
X195233501Y-61230264D01*
X195233489Y-61230261D01*
X195078845Y-61199500D01*
X195078842Y-61199500D01*
X194921158Y-61199500D01*
X194921155Y-61199500D01*
X194766510Y-61230261D01*
X194766498Y-61230264D01*
X194620827Y-61290602D01*
X194620814Y-61290609D01*
X194489711Y-61378210D01*
X194489707Y-61378213D01*
X194378213Y-61489707D01*
X194378210Y-61489711D01*
X194290609Y-61620814D01*
X194290602Y-61620827D01*
X194230264Y-61766498D01*
X194230261Y-61766510D01*
X194199500Y-61921153D01*
X191730242Y-61921153D01*
X191729933Y-61920408D01*
X191709397Y-61870827D01*
X191709390Y-61870814D01*
X191621789Y-61739711D01*
X191621786Y-61739707D01*
X191510292Y-61628213D01*
X191510288Y-61628210D01*
X191379185Y-61540609D01*
X191379172Y-61540602D01*
X191233501Y-61480264D01*
X191233489Y-61480261D01*
X191078845Y-61449500D01*
X191078842Y-61449500D01*
X190921158Y-61449500D01*
X190921155Y-61449500D01*
X190766510Y-61480261D01*
X190766498Y-61480264D01*
X190620827Y-61540602D01*
X190620814Y-61540609D01*
X190489711Y-61628210D01*
X190489707Y-61628213D01*
X190378213Y-61739707D01*
X190378210Y-61739711D01*
X190290609Y-61870814D01*
X190290602Y-61870827D01*
X190230264Y-62016498D01*
X190230261Y-62016510D01*
X190199500Y-62171153D01*
X166750500Y-62171153D01*
X166750500Y-60171153D01*
X193449500Y-60171153D01*
X193449500Y-60328846D01*
X193480261Y-60483489D01*
X193480264Y-60483501D01*
X193540602Y-60629172D01*
X193540609Y-60629185D01*
X193628210Y-60760288D01*
X193628213Y-60760292D01*
X193739707Y-60871786D01*
X193739711Y-60871789D01*
X193870814Y-60959390D01*
X193870827Y-60959397D01*
X194016498Y-61019735D01*
X194016503Y-61019737D01*
X194171153Y-61050499D01*
X194171156Y-61050500D01*
X194171158Y-61050500D01*
X194328844Y-61050500D01*
X194328845Y-61050499D01*
X194483497Y-61019737D01*
X194629179Y-60959394D01*
X194760289Y-60871789D01*
X194871789Y-60760289D01*
X194959394Y-60629179D01*
X195019737Y-60483497D01*
X195050500Y-60328842D01*
X195050500Y-60171158D01*
X195050500Y-60171155D01*
X195050499Y-60171153D01*
X195019738Y-60016510D01*
X195019737Y-60016503D01*
X195019735Y-60016498D01*
X194959397Y-59870827D01*
X194959390Y-59870814D01*
X194871789Y-59739711D01*
X194871786Y-59739707D01*
X194760292Y-59628213D01*
X194760288Y-59628210D01*
X194629185Y-59540609D01*
X194629172Y-59540602D01*
X194483501Y-59480264D01*
X194483489Y-59480261D01*
X194328845Y-59449500D01*
X194328842Y-59449500D01*
X194171158Y-59449500D01*
X194171155Y-59449500D01*
X194016510Y-59480261D01*
X194016498Y-59480264D01*
X193870827Y-59540602D01*
X193870814Y-59540609D01*
X193739711Y-59628210D01*
X193739707Y-59628213D01*
X193628213Y-59739707D01*
X193628210Y-59739711D01*
X193540609Y-59870814D01*
X193540602Y-59870827D01*
X193480264Y-60016498D01*
X193480261Y-60016510D01*
X193449500Y-60171153D01*
X166750500Y-60171153D01*
X166750500Y-57921153D01*
X185699500Y-57921153D01*
X185699500Y-58078846D01*
X185730261Y-58233489D01*
X185730264Y-58233501D01*
X185790602Y-58379172D01*
X185790609Y-58379185D01*
X185878210Y-58510288D01*
X185878213Y-58510292D01*
X185989707Y-58621786D01*
X185989711Y-58621789D01*
X186120814Y-58709390D01*
X186120827Y-58709397D01*
X186266498Y-58769735D01*
X186266503Y-58769737D01*
X186421153Y-58800499D01*
X186421156Y-58800500D01*
X186421158Y-58800500D01*
X186578844Y-58800500D01*
X186578845Y-58800499D01*
X186733497Y-58769737D01*
X186879179Y-58709394D01*
X187010289Y-58621789D01*
X187121789Y-58510289D01*
X187209394Y-58379179D01*
X187269737Y-58233497D01*
X187300500Y-58078842D01*
X187300500Y-57921158D01*
X187300500Y-57921155D01*
X187300499Y-57921153D01*
X187269738Y-57766510D01*
X187269737Y-57766503D01*
X187269735Y-57766498D01*
X187209397Y-57620827D01*
X187209390Y-57620814D01*
X187121789Y-57489711D01*
X187121786Y-57489707D01*
X187010292Y-57378213D01*
X187010288Y-57378210D01*
X186879185Y-57290609D01*
X186879172Y-57290602D01*
X186733501Y-57230264D01*
X186733489Y-57230261D01*
X186578845Y-57199500D01*
X186578842Y-57199500D01*
X186421158Y-57199500D01*
X186421155Y-57199500D01*
X186266510Y-57230261D01*
X186266498Y-57230264D01*
X186120827Y-57290602D01*
X186120814Y-57290609D01*
X185989711Y-57378210D01*
X185989707Y-57378213D01*
X185878213Y-57489707D01*
X185878210Y-57489711D01*
X185790609Y-57620814D01*
X185790602Y-57620827D01*
X185730264Y-57766498D01*
X185730261Y-57766510D01*
X185699500Y-57921153D01*
X166750500Y-57921153D01*
X166750500Y-56624500D01*
X166770185Y-56557461D01*
X166822989Y-56511706D01*
X166874500Y-56500500D01*
X170582351Y-56500500D01*
X170649390Y-56520185D01*
G37*
%TD.AperFunction*%
%TD*%
M02*
