M48
; DRILL file {KiCad 9.0.1} date 2025-05-26T16:44:29+0200
; FORMAT={-:-/ absolute / metric / decimal}
; #@! TF.CreationDate,2025-05-26T16:44:29+02:00
; #@! TF.GenerationSoftware,Kicad,Pcbnew,9.0.1
; #@! TF.FileFunction,Plated,1,4,PTH
FMAT,2
METRIC
; #@! TA.AperFunction,Plated,PTH,ViaDrill
T1C0.300
; #@! TA.AperFunction,Plated,PTH,ComponentDrill
T2C0.500
; #@! TA.AperFunction,Plated,PTH,ComponentDrill
T3C0.550
%
G90
G05
T1
X171.5Y-56.75
X172.75Y-56.75
X175.0Y-75.0
X176.75Y-75.0
X177.75Y-75.0
X179.25Y-56.75
X181.25Y-75.0
X186.5Y-58.0
X186.75Y-72.75
X190.0Y-69.25
X190.75Y-72.75
X191.0Y-62.25
X191.305Y-73.5
X191.305Y-74.3
X191.509Y-65.744
X193.0Y-66.75
X193.25Y-75.0
X194.25Y-60.25
X194.805Y-71.305
X194.805Y-71.305
X195.0Y-62.0
X195.055Y-75.0
X196.25Y-62.75
X196.5Y-66.75
X197.5Y-66.75
X198.25Y-68.1
X198.555Y-72.0
X199.75Y-73.25
T2
G00X202.825Y-64.0
M15
G01X202.175Y-64.0
M16
G05
G00X202.825Y-71.0
M15
G01X202.175Y-71.0
M16
G05
T3
G00X199.8Y-64.85
M15
G01X199.8Y-65.15
M16
G05
G00X199.8Y-69.85
M15
G01X199.8Y-70.15
M16
G05
M30
