%TF.GenerationSoftware,KiCad,Pcbnew,9.0.1*%
%TF.CreationDate,2025-05-26T16:44:25+02:00*%
%TF.ProjectId,Janus HW,4a616e75-7320-4485-972e-6b696361645f,rev?*%
%TF.SameCoordinates,Original*%
%TF.FileFunction,Legend,Bot*%
%TF.FilePolarity,Positive*%
%FSLAX46Y46*%
G04 Gerber Fmt 4.6, Leading zero omitted, Abs format (unit mm)*
G04 Created by KiCad (PCBNEW 9.0.1) date 2025-05-26 16:44:25*
%MOMM*%
%LPD*%
G01*
G04 APERTURE LIST*
%ADD10C,0.150000*%
%ADD11C,0.120000*%
G04 APERTURE END LIST*
D10*
X179454819Y-65188095D02*
X180264342Y-65188095D01*
X180264342Y-65188095D02*
X180359580Y-65235714D01*
X180359580Y-65235714D02*
X180407200Y-65283333D01*
X180407200Y-65283333D02*
X180454819Y-65378571D01*
X180454819Y-65378571D02*
X180454819Y-65569047D01*
X180454819Y-65569047D02*
X180407200Y-65664285D01*
X180407200Y-65664285D02*
X180359580Y-65711904D01*
X180359580Y-65711904D02*
X180264342Y-65759523D01*
X180264342Y-65759523D02*
X179454819Y-65759523D01*
X179550057Y-66188095D02*
X179502438Y-66235714D01*
X179502438Y-66235714D02*
X179454819Y-66330952D01*
X179454819Y-66330952D02*
X179454819Y-66569047D01*
X179454819Y-66569047D02*
X179502438Y-66664285D01*
X179502438Y-66664285D02*
X179550057Y-66711904D01*
X179550057Y-66711904D02*
X179645295Y-66759523D01*
X179645295Y-66759523D02*
X179740533Y-66759523D01*
X179740533Y-66759523D02*
X179883390Y-66711904D01*
X179883390Y-66711904D02*
X180454819Y-66140476D01*
X180454819Y-66140476D02*
X180454819Y-66759523D01*
X197154819Y-67166666D02*
X197869104Y-67166666D01*
X197869104Y-67166666D02*
X198011961Y-67119047D01*
X198011961Y-67119047D02*
X198107200Y-67023809D01*
X198107200Y-67023809D02*
X198154819Y-66880952D01*
X198154819Y-66880952D02*
X198154819Y-66785714D01*
X198154819Y-68166666D02*
X198154819Y-67595238D01*
X198154819Y-67880952D02*
X197154819Y-67880952D01*
X197154819Y-67880952D02*
X197297676Y-67785714D01*
X197297676Y-67785714D02*
X197392914Y-67690476D01*
X197392914Y-67690476D02*
X197440533Y-67595238D01*
D11*
%TO.C,U2*%
X169625000Y-57825000D02*
X169625000Y-74075000D01*
X169625000Y-74075000D02*
X185875000Y-74075000D01*
X184050000Y-74350000D02*
X186150000Y-74350000D01*
X185875000Y-57825000D02*
X169625000Y-57825000D01*
X185875000Y-74075000D02*
X185875000Y-57825000D01*
X186150000Y-74350000D02*
X186150000Y-72050000D01*
%TO.C,J1*%
X203890000Y-63740000D02*
X203490000Y-63740000D01*
X203490000Y-71260000D02*
X203890000Y-71260000D01*
X201520000Y-63740000D02*
X199540000Y-63740000D01*
X201520000Y-71260000D02*
X199540000Y-71260000D01*
X199540000Y-63740000D02*
X199540000Y-64160000D01*
X199540000Y-71260000D02*
X199540000Y-70840000D01*
X199310000Y-65740000D02*
X198860000Y-65740000D01*
X198860000Y-66190000D02*
X198860000Y-65740000D01*
%TD*%
M02*
